<mxfile host="65bd71144e">
    <diagram id="OGC2Ll1CPVu-1jC-zfSV" name="Page-1">
        <mxGraphModel dx="1204" dy="790" grid="1" gridSize="10" guides="1" tooltips="1" connect="1" arrows="1" fold="1" page="1" pageScale="1" pageWidth="850" pageHeight="1100" math="0" shadow="0">
            <root>
                <mxCell id="0"/>
                <mxCell id="1" parent="0"/>
                <mxCell id="qT6abT6H6XAcZetoOwx2-1" value="" style="endArrow=classic;html=1;rounded=0;entryX=0.5;entryY=0;entryDx=0;entryDy=0;" parent="1" edge="1" target="lG2esIFgsPfzx7NO-sco-2">
                    <mxGeometry width="50" height="50" relative="1" as="geometry">
                        <mxPoint x="240" y="210" as="sourcePoint"/>
                        <mxPoint x="180" y="280" as="targetPoint"/>
                    </mxGeometry>
                </mxCell>
                <mxCell id="lG2esIFgsPfzx7NO-sco-1" value="Books Service" style="rounded=0;whiteSpace=wrap;html=1;hachureGap=4;" parent="1" vertex="1">
                    <mxGeometry x="100" y="340" width="140" height="60" as="geometry"/>
                </mxCell>
                <mxCell id="lG2esIFgsPfzx7NO-sco-2" value="REST" style="rounded=0;whiteSpace=wrap;html=1;hachureGap=4;" parent="1" vertex="1">
                    <mxGeometry x="130" y="310" width="70" height="30" as="geometry"/>
                </mxCell>
                <mxCell id="lG2esIFgsPfzx7NO-sco-3" value="Borrowing Service" style="rounded=0;whiteSpace=wrap;html=1;hachureGap=4;" parent="1" vertex="1">
                    <mxGeometry x="310" y="340" width="140" height="60" as="geometry"/>
                </mxCell>
                <mxCell id="lG2esIFgsPfzx7NO-sco-4" value="REST" style="rounded=0;whiteSpace=wrap;html=1;hachureGap=4;" parent="1" vertex="1">
                    <mxGeometry x="340" y="310" width="70" height="30" as="geometry"/>
                </mxCell>
                <mxCell id="lG2esIFgsPfzx7NO-sco-5" value="Customer Service" style="rounded=0;whiteSpace=wrap;html=1;hachureGap=4;" parent="1" vertex="1">
                    <mxGeometry x="520" y="340" width="140" height="60" as="geometry"/>
                </mxCell>
                <mxCell id="lG2esIFgsPfzx7NO-sco-6" value="REST" style="rounded=0;whiteSpace=wrap;html=1;hachureGap=4;" parent="1" vertex="1">
                    <mxGeometry x="550" y="310" width="70" height="30" as="geometry"/>
                </mxCell>
                <mxCell id="lG2esIFgsPfzx7NO-sco-7" value="" style="endArrow=classic;html=1;rounded=0;entryX=0.5;entryY=0;entryDx=0;entryDy=0;" parent="1" edge="1" target="lG2esIFgsPfzx7NO-sco-4">
                    <mxGeometry width="50" height="50" relative="1" as="geometry">
                        <mxPoint x="375" y="200" as="sourcePoint"/>
                        <mxPoint x="379.5" y="290" as="targetPoint"/>
                    </mxGeometry>
                </mxCell>
                <mxCell id="lG2esIFgsPfzx7NO-sco-8" value="" style="endArrow=classic;html=1;rounded=0;entryX=0.5;entryY=0;entryDx=0;entryDy=0;" parent="1" edge="1" target="lG2esIFgsPfzx7NO-sco-6">
                    <mxGeometry width="50" height="50" relative="1" as="geometry">
                        <mxPoint x="520" y="210" as="sourcePoint"/>
                        <mxPoint x="570" y="280" as="targetPoint"/>
                    </mxGeometry>
                </mxCell>
                <mxCell id="lG2esIFgsPfzx7NO-sco-31" value="MySQL" style="shape=cylinder3;whiteSpace=wrap;html=1;boundedLbl=1;backgroundOutline=1;size=15;hachureGap=4;" parent="1" vertex="1">
                    <mxGeometry x="137.5" y="470" width="65" height="110" as="geometry"/>
                </mxCell>
                <mxCell id="lG2esIFgsPfzx7NO-sco-32" value="MySQL" style="shape=cylinder3;whiteSpace=wrap;html=1;boundedLbl=1;backgroundOutline=1;size=15;hachureGap=4;" parent="1" vertex="1">
                    <mxGeometry x="347.5" y="470" width="65" height="110" as="geometry"/>
                </mxCell>
                <mxCell id="lG2esIFgsPfzx7NO-sco-33" value="Mongodb" style="shape=cylinder3;whiteSpace=wrap;html=1;boundedLbl=1;backgroundOutline=1;size=15;hachureGap=4;direction=east;" parent="1" vertex="1">
                    <mxGeometry x="557.5" y="470" width="65" height="110" as="geometry"/>
                </mxCell>
                <mxCell id="lG2esIFgsPfzx7NO-sco-34" value="" style="endArrow=classic;html=1;rounded=0;startSize=14;endSize=14;sourcePerimeterSpacing=8;targetPerimeterSpacing=8;curved=1;exitX=0.5;exitY=1;exitDx=0;exitDy=0;entryX=0.5;entryY=0;entryDx=0;entryDy=0;entryPerimeter=0;" parent="1" source="lG2esIFgsPfzx7NO-sco-1" target="lG2esIFgsPfzx7NO-sco-31" edge="1">
                    <mxGeometry width="50" height="50" relative="1" as="geometry">
                        <mxPoint x="560" y="430" as="sourcePoint"/>
                        <mxPoint x="610" y="380" as="targetPoint"/>
                    </mxGeometry>
                </mxCell>
                <mxCell id="lG2esIFgsPfzx7NO-sco-35" value="" style="endArrow=classic;html=1;rounded=0;startSize=14;endSize=14;sourcePerimeterSpacing=8;targetPerimeterSpacing=8;curved=1;exitX=0.5;exitY=1;exitDx=0;exitDy=0;entryX=0.5;entryY=0;entryDx=0;entryDy=0;entryPerimeter=0;" parent="1" edge="1">
                    <mxGeometry width="50" height="50" relative="1" as="geometry">
                        <mxPoint x="379.5" y="400" as="sourcePoint"/>
                        <mxPoint x="379.5" y="470" as="targetPoint"/>
                    </mxGeometry>
                </mxCell>
                <mxCell id="lG2esIFgsPfzx7NO-sco-36" value="" style="endArrow=classic;html=1;rounded=0;startSize=14;endSize=14;sourcePerimeterSpacing=8;targetPerimeterSpacing=8;curved=1;exitX=0.5;exitY=1;exitDx=0;exitDy=0;entryX=0.5;entryY=0;entryDx=0;entryDy=0;entryPerimeter=0;" parent="1" edge="1">
                    <mxGeometry width="50" height="50" relative="1" as="geometry">
                        <mxPoint x="589.5" y="400" as="sourcePoint"/>
                        <mxPoint x="589.5" y="470" as="targetPoint"/>
                    </mxGeometry>
                </mxCell>
                <mxCell id="lG2esIFgsPfzx7NO-sco-39" value="" style="endArrow=none;html=1;rounded=0;startSize=14;endSize=14;sourcePerimeterSpacing=8;targetPerimeterSpacing=8;curved=1;exitX=0.879;exitY=1.05;exitDx=0;exitDy=0;exitPerimeter=0;" parent="1" source="lG2esIFgsPfzx7NO-sco-1" edge="1">
                    <mxGeometry width="50" height="50" relative="1" as="geometry">
                        <mxPoint x="560" y="430" as="sourcePoint"/>
                        <mxPoint x="220" y="620" as="targetPoint"/>
                    </mxGeometry>
                </mxCell>
                <mxCell id="lG2esIFgsPfzx7NO-sco-40" value="" style="endArrow=none;html=1;rounded=0;startSize=14;endSize=14;sourcePerimeterSpacing=8;targetPerimeterSpacing=8;curved=1;exitX=0.914;exitY=1.05;exitDx=0;exitDy=0;exitPerimeter=0;" parent="1" source="lG2esIFgsPfzx7NO-sco-3" edge="1">
                    <mxGeometry width="50" height="50" relative="1" as="geometry">
                        <mxPoint x="560" y="430" as="sourcePoint"/>
                        <mxPoint x="438" y="620" as="targetPoint"/>
                    </mxGeometry>
                </mxCell>
                <mxCell id="lG2esIFgsPfzx7NO-sco-41" value="" style="endArrow=none;html=1;rounded=0;startSize=14;endSize=14;sourcePerimeterSpacing=8;targetPerimeterSpacing=8;curved=1;exitX=0.921;exitY=1.05;exitDx=0;exitDy=0;exitPerimeter=0;" parent="1" source="lG2esIFgsPfzx7NO-sco-5" edge="1">
                    <mxGeometry width="50" height="50" relative="1" as="geometry">
                        <mxPoint x="560" y="430" as="sourcePoint"/>
                        <mxPoint x="649" y="620" as="targetPoint"/>
                    </mxGeometry>
                </mxCell>
                <mxCell id="lG2esIFgsPfzx7NO-sco-43" value="" style="endArrow=none;html=1;rounded=0;startSize=14;endSize=14;sourcePerimeterSpacing=8;targetPerimeterSpacing=8;curved=1;" parent="1" edge="1">
                    <mxGeometry width="50" height="50" relative="1" as="geometry">
                        <mxPoint x="220" y="620" as="sourcePoint"/>
                        <mxPoint x="990" y="620" as="targetPoint"/>
                    </mxGeometry>
                </mxCell>
                <mxCell id="lG2esIFgsPfzx7NO-sco-44" value="Notification Service" style="rounded=0;whiteSpace=wrap;html=1;hachureGap=4;" parent="1" vertex="1">
                    <mxGeometry x="680" y="660" width="120" height="20" as="geometry"/>
                </mxCell>
                <mxCell id="lG2esIFgsPfzx7NO-sco-45" value="Rabbit MQ" style="rounded=0;whiteSpace=wrap;html=1;hachureGap=4;" parent="1" vertex="1">
                    <mxGeometry x="650" y="680" width="180" height="60" as="geometry"/>
                </mxCell>
                <mxCell id="lG2esIFgsPfzx7NO-sco-46" value="" style="endArrow=none;html=1;rounded=0;startSize=14;endSize=14;sourcePerimeterSpacing=8;targetPerimeterSpacing=8;curved=1;exitX=0.5;exitY=0;exitDx=0;exitDy=0;" parent="1" source="lG2esIFgsPfzx7NO-sco-44" edge="1">
                    <mxGeometry width="50" height="50" relative="1" as="geometry">
                        <mxPoint x="680" y="710" as="sourcePoint"/>
                        <mxPoint x="740" y="620" as="targetPoint"/>
                    </mxGeometry>
                </mxCell>
            </root>
        </mxGraphModel>
    </diagram>
</mxfile>